<?xml version="1.0" encoding="UTF-8" standalone="no"?>
<svg
   version="1.1"
   viewBox="0 0 810.19599 872.99719"
   id="svg66"
   sodipodi:docname="garage.svg"
   width="810.19598"
   height="872.99719"
   inkscape:version="1.4.3 (0d15f75, 2025-12-25)"
   xmlns:inkscape="http://www.inkscape.org/namespaces/inkscape"
   xmlns:sodipodi="http://sodipodi.sourceforge.net/DTD/sodipodi-0.dtd"
   xmlns="http://www.w3.org/2000/svg"
   xmlns:svg="http://www.w3.org/2000/svg">
  <defs
     id="defs66">
    <rect
       x="106.65124"
       y="1786.876"
       width="827.10553"
       height="364.47607"
       id="rect166" />
    <rect
       x="106.65124"
       y="1786.876"
       width="810.14685"
       height="363.21988"
       id="rect166-0" />
    <rect
       x="106.65124"
       y="1786.876"
       width="827.10553"
       height="364.47607"
       id="rect166-4" />
  </defs>
  <sodipodi:namedview
     id="namedview66"
     pagecolor="#ffffff"
     bordercolor="#000000"
     borderopacity="0.25"
     inkscape:showpageshadow="2"
     inkscape:pageopacity="0.0"
     inkscape:pagecheckerboard="0"
     inkscape:deskcolor="#d1d1d1"
     inkscape:zoom="0.79605265"
     inkscape:cx="871.17353"
     inkscape:cy="167.70248"
     inkscape:window-width="3840"
     inkscape:window-height="2054"
     inkscape:window-x="-11"
     inkscape:window-y="-11"
     inkscape:window-maximized="1"
     inkscape:current-layer="svg66" />
  <path
     fill="#2a3c4d"
     d="m 186.78408,148.6263 c 1.96,-1.03 3.65,-2.91 5.77,-4.42 q 36.08,-25.65 41.57,-29.37 37.63,-25.51 127.82,-88.67 15.89,-11.12 33.52,-22.4900005 c 8.93,-5.759996 14.23,-4.309996 22.48,1.29 q 12.64,8.5700005 25.01,17.4700005 c 16.29,11.72 26.91,18.55 41.02,28.77 q 3.8,2.76 59.75,42.26 7.84,5.54 15.85,10.63 c 6.24,3.96 12.19,8.99 18.62,13.36 18.46,12.54 32.17,22.64 58.7,41.29 q 2.51,1.77 31.89,22.69 23.44,16.69 31.96,22.54 5.78,3.96 12.66,8.75 24.46,17 61.61,43.52 c 8.87,6.33 17.46,11.7 24.52,17.36 q 12.2,9.79 10.44,25.29 c -0.66,5.81 -3.26,11.19 -7.71,15.53 q -10.61,10.35 -20.6,13.6 c -8.72,2.83 -20.34,3.79 -29.77,1.15 -2.91,-0.81 -6.67,-2.06 -9.93,-2.22 a 0.59,0.59 0 0 0 -0.62,0.59 q 0.15,146.42 0.06,317.89 c 0,6.48 -0.14,12.72 -6.42,16.3 -5.73,3.28 -10.46,3.17 -18.53,3.25 -14.43,0.15 -26.26,0.36 -38.73,-0.31 a 1.67,1.67 0 0 1 -1.58,-1.61 q -0.36,-9.83 -0.36,-21.13 -0.06,-119.96 -0.05,-363.52 0,-2.41 -0.49,-3.73 a 1.02,0.99 7.8 0 0 -0.37,-0.47 l -266.12,-186.06 a 4.25,4.31 69.5 0 0 -1.47,-0.66 q -2.72,-0.64 -4.36,0.64 c -14.93,11.67 -24.12,18.05 -39.65,28.51 -13.03,8.77 -27.39,19.56 -38.22,26.79 q -9.94,6.64 -19.88,13.86 -10.28,7.46 -42.81,30.03 -19.05,13.21 -20.9,14.44 -9.12,6.07 -20.87,14.5 -17,12.19 -52.25,36.78 -15.29,10.68 -33.46,22.55 c -1.4,0.91 -3.91,3.04 -5.78,4.2 q -7.55,4.67 -11.41,7.85 c -2.66,2.19 -2.02,8.42 -2.03,12.81 q -0.07,355.29 -0.01,355.98 0.4,4.39 -0.12,5.89 a 2,2.04 78.1 0 1 -0.56,0.84 c -2.1,1.85 -7.69,2.11 -10.25,2.08 q -24.329996,-0.22 -43.269996,-0.15 c -6.23,0.02 -14.08,-1.89 -17.2,-7.92 -2.65,-5.11 -2.34,-11.65 -2.34,-17.01 q -0.25,-225.02 0.02,-276.48 c 0.01,-2.7 -0.45,-7.38 2.29,-7.72 q 2.13,-0.27 3.54,-0.3 7.8,-0.22 21.65,-0.33 2.27,-0.02 2.27,-2.45 -0.01,-15.44 0.22,-24.53 a 0.81,0.81 0 0 0 -0.79,-0.83 q -1.74,-0.04 -3.5,0.31 c -13.58,2.72 -28.319997,3.75 -40.249997,-0.86 q -12.99,-5.03 -20.9299997,-14.4 -7.58,-8.95 -6.22999994,-21.25 c 0.85999994,-7.77 6.21999994,-13.98 12.19999964,-18.7 q 7.85,-6.2 19.87,-14.88 24.189997,-17.46 28.409997,-20.35 3.92,-2.69 26.83,-18.43 c 6.29,-4.33 12.829996,-9.4 19.359996,-13.6 q 1.47,-0.95 2.61,-2.85 a 2.5,2.53 61.9 0 0 0.35,-1.12 q 0.44,-7.27 0.36,-16.21 -0.5,-57.6 -0.15,-100.75 c 0.1,-13.34 3.29,-27.01 15.1,-35.15 q 14.04,-9.66 31.33,-6.43 c 12.35,2.31 25.24,14.62 27.92,26.96 q 1.05,4.82 1.01,20.32 c -0.05,19.13 -0.43,38.6 0.31,57.87 a 0.73,0.73 0 0 0 1.07,0.62 z"
     id="path48" />
  <path
     fill="#f9842b"
     d="m 309.64408,213.7363 q -0.01,0.59 0.43,0.47 0.45,-0.12 0.77,-0.45 4.44,-4.46 7.76,-10.1 3.41,-5.45 10.26,-3.66 1.75,0.45 6,4.96 2.33,2.47 11.44,12.9 c 4.67,5.35 11.17,10.91 15.68,14.95 5.17,4.63 2.18,11.23 -2.72,14.68 -3.34,2.35 -9.46,0.87 -14.5,0.3 a 2.76,3.23 48.6 0 0 -0.65,0.01 l -2.53,0.3 a 3.1,3.09 5.1 0 0 -2.59,2.16 q -1.02,3.27 -1.03,5.94 -0.17,27.75 -0.03,38.74 0.13,10.57 -1.59,13.76 c -3.17,5.86 -12.5,9.05 -18.35,3.72 q -4.73,-4.32 -4.65,-11.22 0.35,-29.93 -0.02,-45.69 -0.06,-2.33 -0.4,-4.69 a 2.07,2.06 87.3 0 0 -1.93,-1.76 q -7.4,-0.38 -13.79,-0.64 -5.8,-0.25 -8.57,-5.85 -2.37,-4.79 1.11,-8.64 2.75,-3.06 6.1,-6.11 7.3,-6.64 13.8,-14.08 z"
     id="path49" />
  <path
     fill="#f9842b"
     d="m 503.60408,314.8163 q -8.44,-8.65 -16.31,-16.94 -5.49,-5.79 -12.4,-12.55 -2.73,-2.67 -4.25,-5.52 a 4.51,4.48 45.6 0 1 0.03,-4.29 l 2.1,-3.8 a 1.74,1.78 86 0 1 0.51,-0.57 c 3.88,-2.79 7.45,-2.12 12.7,-1.95 q 4.68,0.16 7.31,-4.17 c 1.02,-1.68 1.08,-4.64 1.25,-6.04 q 0.3,-2.61 0.26,-4.65 -0.15,-7.38 -0.05,-17 c 0.07,-7.73 -1.08,-17.47 -0.58,-24.58 q 0.2,-2.94 2.74,-5.84 a 1.17,1.19 59.9 0 0 0.27,-0.98 l -0.19,-0.99 q 10.95,-6.3 18.87,4.12 1.5,1.96 1.55,4.88 c 0.32,16.64 -0.11,29.2 -0.12,44.21 q -0.01,2.63 1.04,5.1 c 2.05,4.81 6.04,4.53 10.33,3.99 5.07,-0.65 9.05,1.18 11.13,6.12 1.95,4.62 0.51,8.05 -2.98,11.76 q -4.87,5.17 -13,13.22 c -4.5,4.46 -7.52,9.87 -12.19,14.21 q -4.03,3.75 -8.02,2.26 z"
     id="path50" />
  <path
     fill="#c65a2b"
     d="m 318.60408,203.6563 q -3.32,5.64 -7.76,10.1 -0.32,0.33 -0.77,0.45 -0.44,0.12 -0.43,-0.47 z"
     id="path51" />
  <path
     fill="#d66424"
     d="m 496.99408,204.9463 0.19,0.99 a 1.17,1.19 59.9 0 1 -0.27,0.98 q -2.54,2.9 -2.74,5.84 c -0.5,7.11 0.65,16.85 0.58,24.58 q -0.1,9.62 0.05,17 0.04,2.04 -0.26,4.65 c -0.17,1.4 -0.23,4.36 -1.25,6.04 q -2.63,4.33 -7.31,4.17 c -5.25,-0.17 -8.82,-0.84 -12.7,1.95 a 1.74,1.78 86 0 0 -0.51,0.57 l -2.1,3.8 a 4.51,4.48 45.6 0 0 -0.03,4.29 q 1.52,2.85 4.25,5.52 6.91,6.76 12.4,12.55 7.87,8.29 16.31,16.94 -2.91,-0.67 -4.59,-2.43 -14.36,-15.03 -18.57,-19.42 -4.59,-4.78 -7.25,-7.24 -3.3,-3.06 -4.96,-7.3 a 1.85,1.81 43.1 0 1 -0.05,-1.19 c 0.96,-3.24 2.46,-6.64 5.25,-8.58 2.34,-1.63 8.46,-1.06 11.77,-0.94 6.49,0.22 7.63,-4.5 7.69,-9.77 q 0.2,-21.06 -0.38,-39.26 -0.09,-2.8 0.14,-6.26 0.22,-3.11 4.34,-7.48 z"
     id="path52" />
  <path
     fill="#d66424"
     d="m 641.06408,411.1463 -0.33,-3.25 a 0.48,0.48 0 0 0 -0.94,-0.05 l -0.46,2.06 a 2.12,2.13 6.2 0 1 -2.06,1.66 l -5.59,0.01 5.78,-0.49 a 1.44,1.44 0 0 0 1.31,-1.29 q 1.33,-13.51 0.18,-26.38 -0.21,-2.31 -2.75,-2.28 c -11.05,0.11 -19.61,0.39 -27.98,0.37 q -62.37,-0.19 -124.68,-0.11 -7.59,-0.35 -10.18,-0.33 -58.16,0.35 -128.64,0.22 c -30.88,-0.06 -63.34,-0.11 -101.18,0.07 -18,0.08 -33.5,-0.44 -49.26,0.11 q -1.79,0.06 -4.3,0.68 c -2.29,0.55 -2.3,2.44 -2.34,4.55 q -0.15,8.79 0.05,19.48 0.03,1.78 0.48,4.06 a 1.16,1.16 0 0 0 1.13,0.94 q 35.89,0.42 43.59,0.6 c 8.16,0.19 17.09,-0.46 24.33,-0.31 q 12.53,0.26 24.83,0 26.4,-0.56 47.91,-0.02 5.99,0.15 13.34,-0.02 6.27,-0.15 6.33,-0.15 46.9,0.05 93.79,-0.1 7.17,-0.02 15.09,0.23 7.83,0.26 15.08,0.46 3.38,2.46 10.88,3 4.96,0.35 4.35,5.65 -0.19,1.66 -3.04,5.09 a 0.28,0.29 20.5 0 0 0.21,0.47 q 27.45,0.44 53.14,0.1 c 3.7,-0.04 8.72,0.25 13.33,0.15 q 28.24,-0.59 59.47,0.54 l -119.99,0.03 c -21.07,-0.9 -37.88,-0.94 -60.03,-0.68 -9.1,0.1 -18.34,-0.32 -27.65,-0.11 -32.98,0.76 -68.54,-0.11 -83.06,0.22 q -10.66,0.25 -34.14,-0.02 c -32.52,-0.36 -70.58,0.29 -97.82,0.27 a 0.98,0.99 5.5 0 0 -0.98,0.81 q -0.49,2.75 -0.52,5.11 -0.32,23.67 0.12,40.31 a 1.03,1.03 0 0 0 1.03,1 l 299.34,0.38 c 3.71,6.1 7.29,10.95 12.3,15.45 l -3.89,0.03 q -18.98,-0.35 -24.17,-0.3 -26,0.28 -54,0.22 -96.08,-0.18 -129.06,0.22 c -14.24,0.17 -27.05,-0.38 -39.93,-0.24 q -30.32,0.33 -52.01,0.11 -3.98,-0.05 -7.87,0.56 a 1.4,1.44 9.1 0 0 -1.06,0.79 q -0.84,1.72 -0.91,4.66 -0.57,22.38 0.41,41.77 1.84,7.22 0.28,14.75 -1.21,19.64 -0.6,45.73 0.04,1.75 1.71,1.8 l 1.59,15.14 q -2.8,0.27 -2.87,2.1 -0.86,21.03 -0.61,42.94 a 1.74,1.73 1.1 0 0 1.65,1.71 q 9.99,0.46 36.03,1.85 0.06,0 0.08,0.04 a 0.07,0.07 0 0 1 -0.06,0.11 l -18.31,0.94 -37.28,-0.29 a 0.82,0.81 1.4 0 1 -0.81,-0.84 q 0.37,-8.55 0.37,-18.5 0.09,-251.07 0.04,-280.43 -0.01,-6.05 -0.29,-12.01 a 0.84,0.84 0 0 1 0.85,-0.88 l 8.88,0.13 q -0.8,0.01 -1.03,0.09 a 0.52,0.51 34.9 0 0 0.18,1 l 408.12,0.2 a 0.63,0.63 0 0 0 0.61,-0.46 q 0.1,-0.33 -0.34,-0.6 l 54.09,-0.85 a 1.07,1.06 89.5 0 1 1.08,1.07 z"
     id="path53" />
  <path
     fill="#c65a2b"
     d="m 178.69408,351.7463 407.54,0.23 q 0.44,0.27 0.34,0.6 a 0.63,0.63 0 0 1 -0.61,0.46 l -408.12,-0.2 a 0.52,0.51 34.9 0 1 -0.18,-1 q 0.23,-0.08 1.03,-0.09 z"
     id="path54" />
  <path
     fill="#f9842b"
     d="m 483.54408,381.3963 q 0.14,14.9 2.35,29.44 a 0.44,0.44 0 0 1 -0.43,0.51 l -8.78,0.23 q -1.24,-0.26 -3.09,0.29 -7.25,-0.2 -15.08,-0.46 -7.92,-0.25 -15.09,-0.23 -46.89,0.15 -93.79,0.1 -0.06,0 -6.33,0.15 -7.35,0.17 -13.34,0.02 -21.51,-0.54 -47.91,0.02 -12.3,0.26 -24.83,0 c -7.24,-0.15 -16.17,0.5 -24.33,0.31 q -7.7,-0.18 -43.59,-0.6 a 1.16,1.16 0 0 1 -1.13,-0.94 q -0.45,-2.28 -0.48,-4.06 -0.2,-10.69 -0.05,-19.48 c 0.04,-2.11 0.05,-4 2.34,-4.55 q 2.51,-0.62 4.3,-0.68 c 15.76,-0.55 31.26,-0.03 49.26,-0.11 37.84,-0.18 70.3,-0.13 101.18,-0.07 q 70.48,0.13 128.64,-0.22 2.59,-0.02 10.18,0.33 z"
     id="path55" />
  <path
     fill="#f97524"
     d="m 631.68408,411.5763 h -155 l 8.78,-0.23 a 0.44,0.44 0 0 0 0.43,-0.51 q -2.21,-14.54 -2.35,-29.44 62.31,-0.08 124.68,0.11 c 8.37,0.02 16.93,-0.26 27.98,-0.37 q 2.54,-0.03 2.75,2.28 1.15,12.87 -0.18,26.38 a 1.44,1.44 0 0 1 -1.31,1.29 z"
     id="path56" />
  <path
     fill="#c65a2b"
     d="m 641.06408,411.1463 0.23,20.79 q -1.71,-1.57 -2.24,-3.47 a 1.26,1.27 86.5 0 0 -1.04,-0.91 c -8.41,-1.18 -17.56,-0.88 -26.08,-0.69 q -31.23,-1.13 -59.47,-0.54 c -4.61,0.1 -9.63,-0.19 -13.33,-0.15 q -25.69,0.34 -53.14,-0.1 a 0.28,0.29 20.5 0 1 -0.21,-0.47 q 2.85,-3.43 3.04,-5.09 0.61,-5.3 -4.35,-5.65 -7.5,-0.54 -10.88,-3 1.85,-0.55 3.09,-0.29 h 155 l 5.59,-0.01 a 2.12,2.13 6.2 0 0 2.06,-1.66 l 0.46,-2.06 a 0.48,0.48 0 0 1 0.94,0.05 z"
     id="path57" />
  <path
     fill="#f9842b"
     d="m 491.94408,426.8963 q 0.07,11.08 1.77,32.06 0.69,8.46 4.34,14.43 a 0.28,0.28 0 0 1 -0.22,0.43 l -3.65,0.24 -5.95,0.13 -299.34,-0.38 a 1.03,1.03 0 0 1 -1.03,-1 q -0.44,-16.64 -0.12,-40.31 0.03,-2.36 0.52,-5.11 a 0.98,0.99 5.5 0 1 0.98,-0.81 c 27.24,0.02 65.3,-0.63 97.82,-0.27 q 23.48,0.27 34.14,0.02 c 14.52,-0.33 50.08,0.54 83.06,-0.22 9.31,-0.21 18.55,0.21 27.65,0.11 22.15,-0.26 38.96,-0.22 60.03,0.68 z"
     id="path58" />
  <path
     fill="#f97524"
     d="m 611.93408,426.8663 c 8.52,-0.19 17.67,-0.49 26.08,0.69 a 1.26,1.27 86.5 0 1 1.04,0.91 q 0.53,1.9 2.24,3.47 l -0.01,42.47 -1.52,-0.71 a 1.22,1.21 48.5 0 0 -0.9,-0.06 q -1.43,0.47 -2.66,0.53 -13.21,0.63 -26.06,0.36 c -19.55,-0.4 -38.12,-0.49 -70.74,-0.61 q -5.4,-0.02 -22.61,0.21 -11.3,0.15 -22.61,-0.07 l 3.65,-0.24 a 0.28,0.28 0 0 0 0.22,-0.43 q -3.65,-5.97 -4.34,-14.43 -1.7,-20.98 -1.77,-32.06 z"
     id="path59" />
  <path
     fill="#c65a2b"
     d="m 641.28408,474.4063 0.16,14.72 q -0.61,1.32 -1.7,1.33 -0.23,0.01 -0.4,-0.12 a 1.02,0.23 39.1 0 0 -0.65,-0.32 l -138.16,-0.38 c -5.01,-4.5 -8.59,-9.35 -12.3,-15.45 l 5.95,-0.13 q 11.31,0.22 22.61,0.07 17.21,-0.23 22.61,-0.21 c 32.62,0.12 51.19,0.21 70.74,0.61 q 12.85,0.27 26.06,-0.36 1.23,-0.06 2.66,-0.53 a 1.22,1.21 48.5 0 1 0.9,0.06 z"
     id="path60" />
  <path
     fill="#f97524"
     d="m 641.44408,489.1263 -0.2,46.55 q -0.32,-0.78 -0.69,-1.01 -0.47,-0.3 -0.93,0.48 -0.63,1.08 -1.65,1.66 a 2.26,2.27 28.2 0 1 -0.92,0.28 q -1.34,0.1 -18.08,0.34 -36.89,0.53 -106.75,0.35 -44.9,-0.12 -89.79,-0.22 l 79.2,-0.35 a 0.48,0.48 0 0 0 0.48,-0.51 q -1.43,-23.55 -5.47,-47.03 l 3.89,-0.03 138.16,0.38 a 1.02,0.23 39.1 0 1 0.65,0.32 q 0.17,0.13 0.4,0.12 1.09,-0.01 1.7,-1.33 z"
     id="path61" />
  <path
     fill="#f9842b"
     d="m 496.64408,489.6663 q 4.04,23.48 5.47,47.03 a 0.48,0.48 0 0 1 -0.48,0.51 l -79.2,0.35 -234.39,-0.1 q -0.98,-19.39 -0.41,-41.77 0.07,-2.94 0.91,-4.66 a 1.4,1.44 9.1 0 1 1.06,-0.79 q 3.89,-0.61 7.87,-0.56 21.69,0.22 52.01,-0.11 c 12.88,-0.14 25.69,0.41 39.93,0.24 q 32.98,-0.4 129.06,-0.22 28,0.06 54,-0.22 5.19,-0.05 24.17,0.3 z"
     id="path62" />
  <path
     fill="#c65a2b"
     d="m 641.24408,535.6763 0.06,16.79 -0.9,3.29 a 0.26,0.26 0 0 1 -0.47,0.06 l -1.61,-2.79 a 2.94,2.93 74.9 0 0 -2.54,-1.47 c -13.13,-0.07 -38.05,0.48 -56.81,-0.2 -7.93,-0.29 -20.14,0.22 -29.97,0.09 q -7.96,-0.1 -12.56,0.05 c -4.72,0.16 -9.81,0.87 -14.85,0.47 q -6.94,-0.55 -13.37,-0.54 -21.94,0.06 -39.03,-0.1 -17.22,-0.16 -39.04,-0.11 -93.76,0.24 -198.29,0.17 c -14.65,-0.01 -28.89,0.39 -43.54,0.82 q 1.56,-7.53 -0.28,-14.75 l 234.39,0.1 q 44.89,0.1 89.79,0.22 69.86,0.18 106.75,-0.35 16.74,-0.24 18.08,-0.34 a 2.26,2.27 28.2 0 0 0.92,-0.28 q 1.02,-0.58 1.65,-1.66 0.46,-0.78 0.93,-0.48 0.37,0.23 0.69,1.01 z"
     id="path63" />
  <path
     fill="#f97524"
     d="m 641.30408,552.4663 0.04,44.89 q -2.3,0.74 -3.57,1.92 a 2.04,2.02 23.6 0 1 -1.37,0.53 l -446.97,-0.07 q -1.67,-0.05 -1.71,-1.8 -0.61,-26.09 0.6,-45.73 c 14.65,-0.43 28.89,-0.83 43.54,-0.82 q 104.53,0.07 198.29,-0.17 21.82,-0.05 39.04,0.11 17.09,0.16 39.03,0.1 6.43,-0.01 13.37,0.54 c 5.04,0.4 10.13,-0.31 14.85,-0.47 q 4.6,-0.15 12.56,-0.05 c 9.83,0.13 22.04,-0.38 29.97,-0.09 18.76,0.68 43.68,0.13 56.81,0.2 a 2.94,2.93 74.9 0 1 2.54,1.47 l 1.61,2.79 a 0.26,0.26 0 0 0 0.47,-0.06 z"
     id="path64" />
  <path
     fill="#c65a2b"
     d="m 641.34408,597.3563 -0.18,16.86 q -0.42,0.91 -1.16,1.31 a 0.59,0.59 0 0 1 -0.77,-0.19 c -1.42,-2.04 -5.81,-0.83 -8.26,-0.83 q -96.23,0.15 -162.68,0.07 -17.97,-0.02 -39.21,-0.17 -21.88,-0.15 -39.21,-0.09 -62.55,0.23 -149.4,0.08 -24.74,-0.04 -49.45,0.48 l -1.59,-15.14 446.97,0.07 a 2.04,2.02 23.6 0 0 1.37,-0.53 q 1.27,-1.18 3.57,-1.92 z"
     id="path65" />
  <path
     fill="#f97524"
     d="m 641.16408,614.2163 0.21,49.99 a 0.69,0.69 0 0 1 -0.7,0.69 l -433.74,-0.33 18.31,-0.94 a 0.07,0.07 0 0 0 0.06,-0.11 q -0.02,-0.04 -0.08,-0.04 -26.04,-1.39 -36.03,-1.85 a 1.74,1.73 1.1 0 1 -1.65,-1.71 q -0.25,-21.91 0.61,-42.94 0.07,-1.83 2.87,-2.1 24.71,-0.52 49.45,-0.48 86.85,0.15 149.4,-0.08 17.33,-0.06 39.21,0.09 21.24,0.15 39.21,0.17 66.45,0.08 162.68,-0.07 c 2.45,0 6.84,-1.21 8.26,0.83 a 0.59,0.59 0 0 0 0.77,0.19 q 0.74,-0.4 1.16,-1.31 z"
     id="path66" />
  <text
     xml:space="preserve"
     id="text166"
     style="font-size:106.667px;line-height:0.9;text-align:center;writing-mode:lr-tb;direction:ltr;white-space:pre;shape-inside:url(#rect166);display:inline;fill:#f9842b;fill-opacity:1"
     transform="translate(-115.44157,-1091.0638)"
     x="602.62732"
     y="0"><tspan
       x="520.20312"
       y="1865.5238"
       id="tspan6"><tspan
         style="font-family:Arial;-inkscape-font-specification:Arial"
         id="tspan5">
</tspan></tspan><tspan
       x="191.16564"
       y="1962.7589"
       id="tspan8"><tspan
         style="font-family:Arial;-inkscape-font-specification:Arial"
         id="tspan7">Connect Stick</tspan></tspan></text>
  <text
     xml:space="preserve"
     id="text166-5"
     style="font-size:106.667px;line-height:0.9;text-align:center;writing-mode:lr-tb;direction:ltr;white-space:pre;shape-inside:url(#rect166-4);display:inline;fill:#f9842b;fill-opacity:1"
     transform="translate(-117.00708,-1192.4329)"
     x="602.62732"
     y="0"><tspan
       x="520.20312"
       y="1865.5238"
       id="tspan10"><tspan
         style="font-family:Arial;-inkscape-font-specification:Arial"
         id="tspan9">
</tspan></tspan><tspan
       x="360.1245"
       y="1962.7589"
       id="tspan12"><tspan
         style="font-family:Arial;-inkscape-font-specification:Arial"
         id="tspan11">Maveo</tspan></tspan></text>
</svg>
